<svg width="28" height="14" viewBox="0 0 28 14" fill="none" xmlns="http://www.w3.org/2000/svg">
<mask id="mask0" mask-type="alpha" maskUnits="userSpaceOnUse" x="0" y="0" width="28" height="14">
<path fill-rule="evenodd" clip-rule="evenodd" d="M5.69952 11.7791C6.05663 11.7791 6.37089 11.7392 6.64229 11.6593C6.9137 11.5795 7.15653 11.4815 7.3708 11.3654C7.58507 11.2493 7.77077 11.1223 7.9279 10.9844C8.08503 10.8465 8.22787 10.7195 8.35643 10.6034C8.52785 10.8211 8.7064 11.1005 8.8921 11.4416C9.0778 11.7827 9.17065 12.0621 9.17065 12.2799C9.17065 12.5992 8.99209 12.8895 8.63498 13.1508C8.335 13.383 7.91004 13.5826 7.36009 13.7495C6.81013 13.9164 6.16376 13.9999 5.42097 13.9999C4.74959 13.9999 4.08894 13.9128 3.43899 13.7386C2.78905 13.5645 2.21053 13.2596 1.70343 12.8242C1.19632 12.3887 0.785649 11.8045 0.471388 11.0715C0.157128 10.3385 0 9.41314 0 8.29547C0 7.38101 0.139272 6.59357 0.417822 5.93313C0.696371 5.27269 1.06776 4.72475 1.53201 4.28929C1.99626 3.85383 2.52121 3.53451 3.10688 3.33129C3.69255 3.12808 4.29249 3.02647 4.90673 3.02647C5.70666 3.02647 6.38517 3.15348 6.94227 3.4075C7.49936 3.66151 7.95289 4.00261 8.30287 4.43081C8.65284 4.85901 8.90638 5.34889 9.06351 5.90047C9.22064 6.45205 9.29921 7.03265 9.29921 7.64229C9.29921 7.72938 9.29921 7.83098 9.29921 7.9471C9.29921 8.06322 9.29564 8.1866 9.2885 8.31724C9.28135 8.44788 9.27421 8.57488 9.26707 8.69826C9.25993 8.82164 9.24921 8.91962 9.23493 8.99219H2.93546C2.9926 9.79053 3.23544 10.4546 3.66397 10.9844C4.09251 11.5142 4.77102 11.7791 5.69952 11.7791ZM6.66336 7.35942C6.66336 6.66269 6.53123 6.09661 6.26697 5.66115C6.0027 5.2257 5.52775 5.00797 4.84209 5.00797C4.24214 5.00797 3.77075 5.21481 3.42792 5.62849C3.08509 6.04218 2.91368 6.61915 2.91368 7.35942H6.66336ZM19.3351 11.1041C19.3351 12.2363 19.4994 13.0709 19.8279 13.608C19.5708 13.7096 19.3315 13.7822 19.1101 13.8257C18.8887 13.8693 18.6566 13.891 18.4137 13.891C17.8995 13.891 17.5103 13.7894 17.246 13.5862C16.9817 13.383 16.8139 13.0927 16.7425 12.7153C16.4282 13.0492 16.014 13.3322 15.4997 13.5645C14.9855 13.7967 14.3569 13.9128 13.6142 13.9128C13.2285 13.9128 12.8428 13.8584 12.4571 13.7495C12.0714 13.6407 11.7215 13.4629 11.4072 13.2161C11.0929 12.9693 10.8358 12.6391 10.6358 12.2254C10.4359 11.8118 10.3359 11.3074 10.3359 10.7122C10.3359 9.97196 10.5108 9.36959 10.8608 8.9051C11.2108 8.44061 11.65 8.07411 12.1786 7.80558C12.7071 7.53705 13.2785 7.35198 13.8927 7.25038C14.5069 7.14877 15.0712 7.08345 15.5854 7.05442C15.7568 7.03991 15.9247 7.03265 16.0889 7.03265C16.2532 7.03265 16.4068 7.03265 16.5496 7.03265V6.64074C16.5496 6.08916 16.4032 5.69726 16.1104 5.46502C15.8175 5.23277 15.3426 5.11665 14.6855 5.11665C14.0713 5.11665 13.5249 5.21826 13.0463 5.42147C12.5678 5.62468 12.1 5.85692 11.6429 6.1182C11.4429 5.87144 11.2822 5.59928 11.1608 5.30172C11.0394 5.00416 10.9787 4.78281 10.9787 4.63765C10.9787 4.44896 11.0894 4.25663 11.3108 4.06068C11.5322 3.86472 11.8357 3.69054 12.2214 3.53813C12.6071 3.38572 13.0499 3.26235 13.5499 3.168C14.0498 3.07365 14.5784 3.02647 15.1355 3.02647C15.9068 3.02647 16.5603 3.10631 17.096 3.26597C17.6317 3.42564 18.0673 3.6724 18.403 4.00625C18.7387 4.3401 18.978 4.7574 19.1208 5.25818C19.2637 5.75895 19.3351 6.34318 19.3351 7.01088V11.1041ZM16.5926 8.57858C16.4926 8.57858 16.3927 8.57858 16.2927 8.57858C16.1927 8.57858 16.0927 8.58584 15.9927 8.60035C15.6356 8.62938 15.282 8.67656 14.9321 8.74188C14.5821 8.8072 14.2714 8.9088 14 9.04669C13.7286 9.18459 13.5072 9.36965 13.3358 9.6019C13.1644 9.83414 13.0786 10.1317 13.0786 10.4946C13.0786 10.901 13.1929 11.2457 13.4215 11.5288C13.65 11.8118 14.0357 11.9533 14.5785 11.9533C14.8499 11.9533 15.107 11.9171 15.3499 11.8445C15.5927 11.7719 15.807 11.6776 15.9927 11.5614C16.1784 11.4453 16.3248 11.3183 16.4319 11.1804C16.5391 11.0425 16.5926 10.9155 16.5926 10.7994V8.57858ZM21.7858 12.0621C21.6858 11.7718 21.6216 11.467 21.593 11.1476C21.5644 10.8283 21.5501 10.509 21.5501 10.1896V0.0870908L21.8715 0.0435454C21.9715 0.0290302 22.0787 0.0181439 22.1929 0.0108863C22.3072 0.00362875 22.4215 0 22.5358 0C22.7643 0 22.9929 0.0217725 23.2214 0.0653181C23.45 0.108864 23.6571 0.195954 23.8428 0.32659C24.0285 0.457227 24.1785 0.635036 24.2928 0.860021C24.407 1.08501 24.4642 1.37894 24.4642 1.74182V3.2659H27.4639V5.48672H24.4642V10.1461C24.4642 11.1621 24.8713 11.6702 25.6855 11.6702C25.8855 11.6702 26.0747 11.6375 26.2533 11.5722C26.4319 11.5069 26.5961 11.4343 26.7461 11.3545C26.8961 11.2746 27.0211 11.1912 27.1211 11.1041C27.2211 11.017 27.2925 10.9517 27.3354 10.9081C27.5496 11.2275 27.7139 11.5032 27.8282 11.7355C27.9424 11.9677 27.9996 12.1855 27.9996 12.3887C27.9996 12.5774 27.9246 12.7624 27.7746 12.9439C27.6246 13.1253 27.4139 13.2922 27.1425 13.4446C26.8711 13.597 26.5426 13.7204 26.1569 13.8148C25.7712 13.9091 25.3498 13.9563 24.8927 13.9563C23.9928 13.9563 23.3 13.7821 22.8143 13.4338C22.3286 13.0854 21.9858 12.6282 21.7858 12.0621Z" fill="white"/>
</mask>
<g mask="url(#mask0)">
<rect width="27.9997" height="13.9998" fill="#128849"/>
</g>
</svg>
