<svg width="18" height="19" viewBox="0 0 18 19" fill="none" xmlns="http://www.w3.org/2000/svg">
<path d="M12.25 14.375C13.375 14.375 14.2916 13.4583 14.2916 12.3333C14.2916 11.2083 13.375 10.2917 12.25 10.2917C11.1166 10.2917 10.2083 11.2083 10.2083 12.3333C10.2083 13.4583 11.1166 14.375 12.25 14.375ZM16.5833 12.9L17.8166 13.8667C17.925 13.9583 17.9583 14.1083 17.8833 14.2417L16.7166 16.2583C16.6416 16.3833 16.5 16.4333 16.3583 16.3833L14.9083 15.8C14.6083 16.0333 14.275 16.225 13.925 16.375L13.7 17.9167C13.6833 18.0583 13.5583 18.1667 13.4166 18.1667H11.0833C10.9333 18.1667 10.8166 18.0583 10.7916 17.9167L10.575 16.375C10.2166 16.225 9.89165 16.0333 9.59165 15.8L8.13331 16.3833C8.00831 16.4333 7.84998 16.3833 7.78331 16.2583L6.61665 14.2417C6.54165 14.1083 6.57498 13.9583 6.68331 13.8667L7.91665 12.9L7.87498 12.3333L7.91665 11.7583L6.68331 10.8C6.57498 10.7083 6.54165 10.55 6.61665 10.425L7.78331 8.40832C7.84998 8.27499 8.00831 8.22499 8.13331 8.27499L9.59165 8.86666C9.89165 8.63332 10.2166 8.43332 10.575 8.29166L10.7916 6.74166C10.8166 6.60832 10.9333 6.49999 11.0833 6.49999H13.4166C13.5583 6.49999 13.6833 6.60832 13.7 6.74166L13.925 8.29166C14.275 8.43332 14.6083 8.63332 14.9083 8.86666L16.3583 8.27499C16.5 8.22499 16.6416 8.27499 16.7166 8.40832L17.8833 10.425C17.9583 10.55 17.925 10.7083 17.8166 10.8L16.5833 11.7583L16.625 12.3333L16.5833 12.9ZM4.57498 5.72499C5.29998 5.72499 5.88331 5.14166 5.88331 4.41666C5.88331 3.69166 5.29998 3.09999 4.57498 3.09999C4.22578 3.09999 3.89088 3.23871 3.64396 3.48563C3.39703 3.73256 3.25831 4.06745 3.25831 4.41666C3.25831 5.14166 3.84998 5.72499 4.57498 5.72499ZM7.35831 4.78332L8.16665 5.39999C8.22498 5.45832 8.24165 5.55832 8.19165 5.64166L7.44165 6.94166C7.39998 7.02499 7.29998 7.05832 7.21665 7.02499L6.28331 6.64999L5.66665 7.01666L5.50831 8.00832C5.49165 8.09999 5.41665 8.16666 5.32498 8.16666H3.82498C3.72498 8.16666 3.64998 8.09999 3.63331 8.00832L3.49998 7.01666L2.86665 6.64999L1.91665 7.02499C1.84165 7.05832 1.74998 7.02499 1.69998 6.94166L0.94998 5.64166C0.89998 5.55832 0.924981 5.45832 0.991647 5.39999L1.78331 4.78332L1.75831 4.41666L1.78331 4.04999L0.991647 3.43332C0.924981 3.37499 0.89998 3.27499 0.94998 3.19166L1.69998 1.89166C1.74998 1.80832 1.84165 1.77499 1.91665 1.80832L2.85831 2.18332L3.49998 1.81666L3.63331 0.82499C3.64998 0.733323 3.72498 0.666656 3.82498 0.666656H5.32498C5.41665 0.666656 5.49165 0.733323 5.50831 0.82499L5.66665 1.81666L6.28331 2.18332L7.21665 1.80832C7.29998 1.77499 7.39998 1.80832 7.44165 1.89166L8.19165 3.19166C8.24165 3.27499 8.22498 3.37499 8.16665 3.43332L7.35831 4.04999L7.38331 4.41666L7.35831 4.78332Z" fill="#128849"/>
</svg>
